<?xml version="1.0" encoding="utf-8"?>
<!-- Generator: Adobe Illustrator 23.0.2, SVG Export Plug-In . SVG Version: 6.00 Build 0)  -->
<svg version="1.1" id="Layer_1" xmlns="http://www.w3.org/2000/svg" xmlns:xlink="http://www.w3.org/1999/xlink" x="0px" y="0px"
	 viewBox="0 0 1638 944" style="enable-background:new 0 0 1638 944;" xml:space="preserve">
<style type="text/css">
	.st0{fill:#F6891F;}
	.st1{fill:#231F20;}
	.st2{fill:#42A447;}
	.st3{fill:#BDBEC0;}
</style>
<g>
	<path class="st0" d="M1460.94,767.07h-818c-23.1,0-42-18.9-42-42l0,0c0-23.1,18.9-42,42-42h818c23.1,0,42,18.9,42,42l0,0
		C1502.94,748.17,1484.04,767.07,1460.94,767.07z"/>
	<g>
		<path class="st1" d="M892.69,700.57h10.93l17.78,49.25h-8.52l-4.72-13.52h-21.11l-4.91,13.52h-8.52L892.69,700.57z M888.71,731.33
			h17.78l-8.43-23.8h-0.19L888.71,731.33z"/>
		<path class="st1" d="M968.33,732.92c-0.74,9.31-5.65,17.87-20.09,17.87c-18.8,0-21.3-13.18-21.3-25.59
			c0-12.42,3.06-25.59,21.3-25.59c13.52,0,19.17,5.66,19.54,15.31h-8.52c-0.19-5.59-2.59-10.35-11.02-10.35
			c-11.3,0-12.78,9.24-12.78,20.63c0,11.38,1.48,20.63,12.78,20.63c9.91,0,11.29-6.9,11.57-12.9L968.33,732.92L968.33,732.92z"/>
		<path class="st1" d="M990.74,700.57h10.93l17.78,49.25h-8.52l-4.72-13.52H985.1l-4.91,13.52h-8.52L990.74,700.57z M986.76,731.33
			h17.78l-8.43-23.8h-0.19L986.76,731.33z"/>
		<path class="st1" d="M1026.76,700.57h17.69c20.55,0,23.15,11.04,23.15,24.63c0,12.42-4.17,24.63-22.31,24.63h-18.52
			L1026.76,700.57L1026.76,700.57z M1034.9,744.85h8.52c14.07,0,15.65-10.76,15.65-19.59c0-9.52-0.83-19.73-15.65-19.73h-8.52
			V744.85z"/>
		<path class="st1" d="M1079.25,700.57h34.17v5.38h-26.02v15.45h24.54v5.38h-24.54v17.66h27.13v5.38h-35.28V700.57z"/>
		<path class="st1" d="M1124.16,700.57h13.7l13.24,39.04h0.19l13.24-39.04h13.7v49.25h-8.15v-43.05h-0.19l-14.63,43.05h-8.15
			l-14.63-43.05h-0.19v43.05h-8.15v-49.25H1124.16z"/>
		<path class="st1" d="M1185.45,700.57h8.98l12.59,23.04l13.05-23.04h8.52l-17.5,29.94v19.32h-8.15v-19.32L1185.45,700.57z"/>
	</g>
	<g>
		<path class="st0" d="M661.68,662.33c-19.58,0-35.77-7.16-48.11-21.28c-12.27-14.04-18.49-32.32-18.49-54.32
			c0-20.47,5.75-38.73,17.08-54.28c11.48-15.74,29.01-23.72,52.12-23.72c17.66,0,32.05,5.3,42.79,15.77
			c10.75,10.48,16.21,21.39,16.21,32.43v2h-7.84l-0.16-1.83c-0.88-10.48-6.04-19.92-15.33-28.06c-9.32-8.16-21.32-12.3-35.68-12.3
			c-20.54,0-36,7.28-45.96,21.64c-10.11,14.59-15.24,30.86-15.24,48.36c0,18.64,5.37,34.78,15.96,47.95
			c10.48,13.04,24.83,19.65,42.64,19.65c15.91,0,28.92-4.95,38.69-14.71c9.83-9.83,15.93-22.94,18.13-38.96l0.24-1.73h8.05
			l-0.32,2.28c-2.59,18.36-9.54,33.28-20.67,44.34C694.59,656.68,679.75,662.33,661.68,662.33z"/>
		<path class="st0" d="M805.28,662.33c-21.2,0-38.01-7.45-49.95-22.14c-11.84-14.56-17.85-32.96-17.85-54.66
			c0-21.7,6-40.09,17.85-54.66c11.95-14.69,28.75-22.14,49.95-22.14s38.01,7.45,49.95,22.14c11.84,14.57,17.85,32.96,17.85,54.66
			c0,21.71-6,40.1-17.85,54.66C843.29,654.88,826.49,662.33,805.28,662.33z M805.28,516.73c-18.23,0-32.89,6.39-43.58,18.99
			c-10.77,12.7-16.22,29.46-16.22,49.81s5.46,37.11,16.22,49.81c10.68,12.6,25.34,18.99,43.58,18.99c18.23,0,32.89-6.39,43.57-18.99
			c10.77-12.7,16.23-29.46,16.23-49.81c0-20.34-5.46-37.1-16.23-49.81C838.17,523.12,823.51,516.73,805.28,516.73z"/>
		<polygon class="st0" points="993.19,658.79 898.46,525.05 898.07,658.93 890.08,658.93 890.08,512.13 899.11,512.13 993.7,645.66 
			994.09,512.13 1002.08,512.13 1002.08,658.97 		"/>
		<polygon class="st0" points="1126.79,658.79 1032.06,525.05 1031.67,658.93 1023.68,658.93 1023.68,512.13 1032.71,512.13 
			1127.3,645.66 1127.68,512.13 1135.68,512.13 1135.68,658.97 		"/>
		<polygon class="st0" points="1157.28,658.93 1157.28,512.13 1256.08,512.13 1256.08,520.13 1165.28,520.13 1165.28,578.53 
			1250.68,578.53 1250.68,586.53 1165.28,586.53 1165.28,650.93 1256.88,650.93 1256.88,658.93 		"/>
		<path class="st0" d="M1329.48,662.33c-19.58,0-35.77-7.16-48.11-21.28c-12.27-14.04-18.49-32.32-18.49-54.32
			c0-20.47,5.75-38.73,17.08-54.28c11.48-15.74,29.01-23.72,52.12-23.72c17.66,0,32.05,5.3,42.79,15.77
			c10.75,10.48,16.21,21.39,16.21,32.43v2h-7.84l-0.16-1.83c-0.88-10.48-6.04-19.92-15.33-28.06c-9.32-8.16-21.32-12.3-35.68-12.3
			c-20.54,0-36,7.28-45.96,21.64c-10.11,14.59-15.24,30.86-15.24,48.36c0,18.64,5.37,34.78,15.96,47.95
			c10.48,13.04,24.83,19.65,42.64,19.65c15.91,0,28.92-4.95,38.69-14.71c9.83-9.83,15.93-22.94,18.13-38.96l0.24-1.73h8.05
			l-0.32,2.28c-2.59,18.36-9.54,33.28-20.67,44.34C1362.38,656.68,1347.54,662.33,1329.48,662.33z"/>
		<polygon class="st0" points="1446.88,658.93 1446.88,520.13 1395.47,520.13 1395.47,512.13 1506.28,512.13 1506.28,520.13 
			1454.88,520.13 1454.88,658.93 		"/>
	</g>
	<g>
		<path class="st2" d="M735.94,479.07v-154h48.04c21.49,0,36.87,3.64,48.15,12.56c15.74,12.8,26.17,36.68,26.17,63.82
			c0,27.53-10.34,51.69-25.98,64.64c-10.8,8.72-27.7,12.98-47.49,12.98L735.94,479.07L735.94,479.07z M764.88,458.15h17.11
			c16.02,0,25.25,0.61,32.9-8.09l0.1-0.12c8.34-10.06,13.52-28.35,13.52-47.74c0-21.4-6.06-35.66-15.81-45.31
			c-6.67-6.93-15.86-7.89-30.71-7.89h-17.11V458.15z"/>
		<polygon class="st2" points="879.61,479.07 879.61,325.07 988.99,325.07 988.99,350.07 908.5,350.07 908.5,388.66 979.46,388.66 
			979.46,413.07 908.5,413.07 908.5,458.07 988.99,458.07 988.99,479.07 		"/>
		<path class="st2" d="M1108.41,479.07l-63.65-106c0.88,10.04,0,24.56,0,36.55v69.45h-29.4v-154h28.22l63.94,110
			c0-10,0-28.9,0-41.04v-68.96h29.4v154H1108.41z"/>
		<polygon class="st2" points="1203.23,479.07 1203.23,349.99 1158.13,349.99 1158.13,325.07 1277.48,325.07 1277.48,349.99 
			1232.07,349.99 1232.07,479.07 		"/>
		<path class="st2" d="M1392.48,479.07l-9.76-34.39h-57.53l-10.05,34.39h-27.21l48.55-154h34.63l48.82,154H1392.48z M1350.42,356.53
			c-1.48,6.54-5.92,19.17-9.24,30.52L1329.75,428h48.45l-11.78-40.92c-1.9-6.81-7.48-24.01-8.95-30.56L1350.42,356.53z"/>
		<polygon class="st2" points="1438.75,479.07 1438.75,325.07 1466.72,325.07 1466.72,457.65 1538.94,457.65 1538.94,479.07 		"/>
	</g>
	<g>
		<path class="st2" d="M554.44,418.57c13-25,73-101,34-151s-130-23-173,6c0,0,95-19,126,9s16,59,0,84s-54,64-40,134
			c0.26,1.11,0.51,2.19,0.77,3.26c15.04-6.62,28.18-13.6,39.51-20.48C542.39,459.79,542.9,440.75,554.44,418.57z"/>
		<path class="st2" d="M528.44,591.57c8,37,24,98-13,164c-1,6-4,14,13-4s47-42,40-127c-6.02-42.17-15.31-69.09-21.31-91.27
			c-10.54,4.9-21.13,9.49-31.73,13.77C520,560.24,524.47,573.19,528.44,591.57z"/>
		<path class="st0" d="M594.44,359.57c0,0,72,51-39,124s-247,64-265,64s-151-11-103-100c-7.29,4.47-18.26,11.55-25.06,23.22
			c-23.44,40.28,7.63,79.34,34.73,90.94c66.21,28.34,199.68,36.89,359.33-41.17C598.44,501.57,716.44,400.57,594.44,359.57z"/>
		<path class="st2" d="M450.94,285.07c0,0-3.5,13.5-29.5,12.5s-77-31-97-38s-99-27-125,42c-10,28,0,94,46,85c16-7,5-20-5-25
			s-25-24-13-60c5-8,28-34,62-23s52,21,72,30s55,28,78,6c14-16,16-22,16-25S458.44,282.57,450.94,285.07z"/>
		<g>
			<path class="st2" d="M297.44,766.57c10,9,26-60,56-154c3.05-9.57,6.14-18.17,9.25-25.86c-10.67,1.18-21.25,1.99-31.7,2.42
				C307.69,665.31,297.44,766.57,297.44,766.57z"/>
			<path class="st2" d="M354.44,532.57c-1.25,2.07-2.48,4.23-3.69,6.49c37.34-2.5,69.94-8.45,98.15-16.3
				C415.22,471.53,394.23,466.92,354.44,532.57z"/>
			<path class="st2" d="M446.44,577.57c30,61,46,179,51,185c10.96-70.43-3.81-145.14-27.04-199.23c-9.07,2.9-18.12,5.57-27.15,8
				C444.31,573.34,445.38,575.41,446.44,577.57z"/>
			<path class="st2" d="M285.44,767.57c6-7,1-19-10-100c-2.37-31.13-2.1-57.44-0.44-79.85c-10.16-0.98-20.01-2.35-29.45-4.1
				C247.93,685.82,285.44,767.57,285.44,767.57z"/>
			<path class="st2" d="M291.44,494.57c7-31,3-43-11-47c-22.74,2.53-32.71,18.54-34.69,86.27c13.53,3.33,26.5,5.05,35.53,5.78
				C284.79,520.99,288.77,506.4,291.44,494.57z"/>
		</g>
		<g>
			<path class="st2" d="M450.94,285.07c0,0-3.5,13.5-29.5,12.5s-77-31-97-38s-99-27-125,42c-10,28,0,94,46,85c16-7,5-20-5-25
				s-25-24-13-60c5-8,28-34,62-23s52,21,72,30s55,28,78,6c14-16,16-22,16-25S458.44,282.57,450.94,285.07z"/>
		</g>
		<g>
			<path class="st3" d="M608.78,301.15c0.91,13.33-1.54,27.02-5.79,40.28c13.95,7.12,34.83,19.28,48.45,34.14c22,24,23,69-12,104
				c18-3,60-26,61-86C701.17,349.81,641.27,316.16,608.78,301.15z"/>
			<path class="st3" d="M205.56,380.11c-4.24-4.93-7.65-10.92-10.28-17.49c-15.05,9.05-41.56,27.81-71.83,61.95
				c-47,53-25,130,57,151c4,0,7,1-5-9s-72-63-27-112c29.15-31.74,55.35-52.98,70.19-64.01C213.82,388.1,209.44,384.62,205.56,380.11
				z"/>
		</g>
	</g>
</g>
</svg>
